<svg id="Capa_1" enable-background="new 0 0 512 512" height="512" viewBox="0 0 512 512" width="512" xmlns="http://www.w3.org/2000/svg"><g><path d="m280.961 230.512h51.446v150.461h-51.446z" fill="#e27f86"/><path d="m219.054 433.198v-47.517c0-9.529 7.725-17.253 17.253-17.253h140.754c9.529 0 17.253 7.725 17.253 17.253v47.517c0 9.529-7.725 17.253-17.253 17.253h-140.754c-9.529.001-17.253-7.724-17.253-17.253z" fill="#ffc269"/><path d="m377.061 368.428h-30.905c9.529 0 17.253 7.725 17.253 17.253v47.517c0 9.529-7.725 17.254-17.253 17.254h30.905c9.529 0 17.253-7.725 17.253-17.253v-47.517c0-9.53-7.724-17.254-17.253-17.254z" fill="#ffa95f"/><g fill="#e27f86"><path d="m494.906 55.919h-111.961v160.271h67.211c34.156 0 61.845-27.689 61.845-61.845v-81.332c-.001-9.441-7.654-17.094-17.095-17.094zm-13.914 98.426c0 17.03-13.806 30.836-30.836 30.836h-36.202v-98.253h59.513c4.156 0 7.525 3.369 7.525 7.525z"/><path d="m101.368 73.013v81.332c0 34.156 27.689 61.845 61.845 61.845h67.211v-160.271h-111.962c-9.441 0-17.094 7.653-17.094 17.094zm38.534 13.915h59.513v98.254h-36.202c-17.03 0-30.836-13.806-30.836-30.836v-59.893c0-4.156 3.369-7.525 7.525-7.525z"/></g><g><path d="m262.051 487.366c16.479 0 29.837-13.359 29.837-29.837v-89.101h-114.258l8.267 58.848 55.798 52.068c5.525 5.154 12.8 8.022 20.356 8.022z" fill="#91dafa"/><path d="m266.133 368.428v89.101c0 11.86-6.92 22.104-16.943 26.914 3.983 1.903 8.371 2.923 12.861 2.923 16.479 0 29.837-13.359 29.837-29.837v-89.101z" fill="#6cbff8"/><path d="m29.837 487.366c-16.478 0-29.837-13.359-29.837-29.837v-89.101h114.259l-8.267 58.847-55.798 52.068c-5.525 5.155-12.8 8.023-20.357 8.023z" fill="#91dafa"/><path d="m234.759 336.907c-10.715-30.09-46.416-52.198-88.815-52.198s-78.1 22.108-88.815 52.198z" fill="#91dafa"/><path d="m258.619 307.355h-52.495c-2.951 0-5.768 1.233-7.77 3.4l-10.473 11.337c-3.548 3.841-8.539 6.025-13.767 6.025h-56.338c-5.229 0-10.22-2.184-13.767-6.025l-10.473-11.337c-2.002-2.168-4.819-3.4-7.77-3.4h-52.496c-44.36 0-44.36 121.573 0 121.573h225.349c44.359 0 44.359-121.573 0-121.573z" fill="#717ed4"/><path d="m258.619 307.355h-25.755c22.249 0 33.338 30.584 33.269 61.072v59.225c36.68-12.912 34.179-120.297-7.514-120.297z" fill="#5766cc"/><g fill="#d6e0f4"><circle cx="109.392" cy="428.928" r="21.524"/><circle cx="182.496" cy="428.928" r="21.524"/></g></g><path d="m182.496 166.588v-134.439c0-4.15 3.364-7.514 7.514-7.514h233.347c4.15 0 7.514 3.364 7.514 7.514v134.439c0 52.357-42.443 94.8-94.8 94.8h-58.776c-52.355 0-94.799-42.443-94.799-94.8z" fill="#ffc269"/><path d="m423.357 24.634h-30.905c4.15 0 7.514 3.364 7.514 7.514v134.44c0 52.357-42.443 94.8-94.8 94.8h30.905c52.357 0 94.8-42.443 94.8-94.8v-134.439c.001-4.15-3.364-7.515-7.514-7.515z" fill="#ffa95f"/><g fill="#d6e0f4"><path d="m72.279 360.414h-11.381v-11.381c0-4.267-3.459-7.726-7.726-7.726s-7.726 3.459-7.726 7.726v11.381h-11.382c-4.267 0-7.726 3.459-7.726 7.726s3.459 7.726 7.726 7.726h11.381v11.381c0 4.267 3.459 7.726 7.726 7.726s7.726-3.459 7.726-7.726v-11.381h11.381c4.267 0 7.726-3.459 7.726-7.726.001-4.267-3.458-7.726-7.725-7.726z"/><path d="m251.972 360.414h-11.381v-11.381c0-4.267-3.459-7.726-7.726-7.726s-7.726 3.459-7.726 7.726v11.381h-11.381c-4.267 0-7.726 3.459-7.726 7.726s3.459 7.726 7.726 7.726h11.381v11.381c0 4.267 3.459 7.726 7.726 7.726s7.726-3.459 7.726-7.726v-11.381h11.381c4.267 0 7.726-3.459 7.726-7.726s-3.459-7.726-7.726-7.726z"/></g></g></svg>