<svg id="Capa_1" enable-background="new 0 0 512 512" height="512" viewBox="0 0 512 512" width="512" xmlns="http://www.w3.org/2000/svg"><g><path d="m346.132 236.971c0-18.148 14.576-32.859 32.556-32.859 12.375 0 23.136 6.969 28.644 17.23 5.508-10.261 16.27-17.23 28.644-17.23 17.98 0 32.556 14.712 32.556 32.859 0 45.595-61.2 70.917-61.2 70.917s-61.2-26.341-61.2-70.917z" fill="#ff475e"/><g><path d="m435.894 204.112c-7.818 0-14.988 2.787-20.6 7.423 0 0 15.049 7.648 18.139 27.737 6.613 42.987-26.183 68.617-26.183 68.617s61.2-25.322 61.2-70.918c0-18.148-14.576-32.859-32.556-32.859z" fill="#f23049"/></g><g><g><path d="m208.235 512h113.783l38.099-30.905 38.1 30.905h113.783v-224.339h-113.783l-38.1 30.905-38.099-30.905h-113.783z" fill="#ff82d1"/><g><path d="m470.793 287.661h41.207v224.339h-41.207z" fill="#fa6bc5"/></g><path d="m322.018 287.661h76.199v224.339h-76.199z" fill="#fcf7cf" transform="matrix(-1 0 0 -1 720.235 799.661)"/></g><g><path d="m12.358 311.728h344.972v71.011h-344.972z" fill="#ffb5e4" transform="matrix(-.534 .845 -.845 -.534 577.119 376.55)"/><path d="m146.745 311.728h76.199v71.011h-76.199z" fill="#fcf7cf" transform="matrix(-.534 .845 -.845 -.534 577.119 376.55)"/><g><g fill="#fcf7cf"><path d="m124.843 311.528-88.437 19.927c-40.531 9.133-49.788 62.711-14.67 84.913l15.451 9.737c22.138 13.996 51.431 7.396 65.428-14.742l51.455-81.388z"/><path d="m126.828 308.389-19.927-88.437c-9.133-40.531 35.298-71.871 70.416-49.669l15.451 9.737c22.138 13.996 28.739 43.289 14.742 65.428l-51.455 81.388z"/></g><path d="m134.736 360.556 40.887-64.672-36.626-23.124c-10.141-6.411-23.559-3.388-29.971 6.753l-17.67 27.948c-6.411 10.141-3.388 23.559 6.753 29.971z" fill="#ffe185"/></g></g></g><g><path d="m250.516 81.66c0-18.148 14.576-32.859 32.556-32.859 12.375 0 23.136 6.969 28.644 17.23 5.508-10.261 16.27-17.23 28.644-17.23 17.98 0 32.556 14.712 32.556 32.859 0 45.595-61.2 70.917-61.2 70.917s-61.2-26.341-61.2-70.917z" fill="#ff475e"/><path d="m214.902 105.158c0-10.354 8.316-18.747 18.574-18.747 7.06 0 13.2 3.976 16.342 9.83 3.142-5.854 9.282-9.83 16.342-9.83 10.258 0 18.574 8.393 18.574 18.747 0 26.014-34.917 40.461-34.917 40.461s-34.915-15.028-34.915-40.461z" fill="#e02648"/></g><path d="m442.167 125.949c0-10.354 8.316-18.747 18.574-18.747 7.06 0 13.2 3.976 16.342 9.83 3.142-5.854 9.282-9.83 16.342-9.83 10.258 0 18.574 8.393 18.574 18.747 0 26.014-34.917 40.461-34.917 40.461s-34.915-15.029-34.915-40.461z" fill="#e02648"/><path d="m407.25 18.747c0-10.354 8.316-18.747 18.574-18.747 7.06 0 13.2 3.976 16.342 9.83 3.143-5.854 9.283-9.83 16.343-9.83 10.258 0 18.574 8.393 18.574 18.747 0 26.014-34.917 40.461-34.917 40.461s-34.916-15.028-34.916-40.461z" fill="#e02648"/><g><path d="m340.361 48.8c-7.818 0-14.988 2.787-20.6 7.423 0 0 15.049 7.648 18.139 27.737 6.613 42.987-26.183 68.617-26.183 68.617s61.2-25.322 61.2-70.917c-.001-18.148-14.577-32.86-32.556-32.86z" fill="#f23049"/></g></g></svg>